<mxfile host="app.diagrams.net" modified="2022-04-21T09:48:24.164Z" agent="5.0 (X11; Linux x86_64) AppleWebKit/537.36 (KHTML, like Gecko) Chrome/99.0.4844.84 Safari/537.36" etag="j3Fni_QvL7lOMo5oXPWE" version="17.4.6" type="github">
  <diagram id="hGFMNqmb2zfe9tHskcBW" name="Page-1">
    <mxGraphModel dx="2249" dy="755" grid="1" gridSize="10" guides="1" tooltips="1" connect="1" arrows="1" fold="1" page="1" pageScale="1" pageWidth="827" pageHeight="1169" math="0" shadow="0">
      <root>
        <mxCell id="0" />
        <mxCell id="1" parent="0" />
        <mxCell id="GLmPlQLurBmdkAW1gnxs-1" value="int amdgpu_device_init" style="text;html=1;align=center;verticalAlign=middle;resizable=0;points=[];autosize=1;strokeColor=none;fillColor=none;" vertex="1" parent="1">
          <mxGeometry x="-690" y="115" width="140" height="20" as="geometry" />
        </mxCell>
        <mxCell id="GLmPlQLurBmdkAW1gnxs-2" value="amdgpu_device_init" style="text;html=1;align=center;verticalAlign=middle;resizable=0;points=[];autosize=1;strokeColor=none;fillColor=none;" vertex="1" parent="1">
          <mxGeometry x="-473" y="440" width="120" height="20" as="geometry" />
        </mxCell>
        <mxCell id="GLmPlQLurBmdkAW1gnxs-3" value="amdgpu_device_ip_early_init" style="text;html=1;align=center;verticalAlign=middle;resizable=0;points=[];autosize=1;strokeColor=none;fillColor=none;" vertex="1" parent="1">
          <mxGeometry x="-230" y="510" width="170" height="20" as="geometry" />
        </mxCell>
        <mxCell id="GLmPlQLurBmdkAW1gnxs-4" value="ratelimit_state_init" style="text;html=1;align=center;verticalAlign=middle;resizable=0;points=[];autosize=1;strokeColor=none;fillColor=none;" vertex="1" parent="1">
          <mxGeometry x="-190" y="220" width="110" height="20" as="geometry" />
        </mxCell>
        <mxCell id="GLmPlQLurBmdkAW1gnxs-5" value="amdgpu_device_doorbell_init" style="text;html=1;align=center;verticalAlign=middle;resizable=0;points=[];autosize=1;strokeColor=none;fillColor=none;" vertex="1" parent="1">
          <mxGeometry x="-220" y="700" width="170" height="20" as="geometry" />
        </mxCell>
        <mxCell id="GLmPlQLurBmdkAW1gnxs-7" value="case CHIP_POLARIS12:&lt;br&gt;vi_set_ip_blocks" style="text;html=1;align=left;verticalAlign=middle;resizable=0;points=[];autosize=1;strokeColor=none;fillColor=none;" vertex="1" parent="1">
          <mxGeometry x="110" y="435" width="150" height="30" as="geometry" />
        </mxCell>
        <mxCell id="GLmPlQLurBmdkAW1gnxs-8" value="&lt;div&gt;case CHIP_POLARIS12:&lt;br&gt;&lt;/div&gt;&lt;div&gt;&lt;span&gt;		&lt;/span&gt;amdgpu_device_ip_block_add(adev, &amp;amp;vi_common_ip_block);&lt;/div&gt;&lt;div&gt;&lt;span&gt;		&lt;/span&gt;amdgpu_device_ip_block_add(adev, &amp;amp;gmc_v8_1_ip_block);&lt;/div&gt;&lt;div&gt;&lt;span&gt;		&lt;/span&gt;amdgpu_device_ip_block_add(adev, &amp;amp;tonga_ih_ip_block);&lt;/div&gt;&lt;div&gt;&lt;span&gt;		&lt;/span&gt;amdgpu_device_ip_block_add(adev, &amp;amp;gfx_v8_0_ip_block);&lt;/div&gt;&lt;div&gt;&lt;span&gt;		&lt;/span&gt;amdgpu_device_ip_block_add(adev, &amp;amp;sdma_v3_1_ip_block);&lt;/div&gt;&lt;div&gt;&lt;span&gt;		&lt;/span&gt;amdgpu_device_ip_block_add(adev, &amp;amp;pp_smu_ip_block);&lt;/div&gt;&lt;div&gt;&lt;span&gt;		&lt;/span&gt;if (adev-&amp;gt;enable_virtual_display)&lt;/div&gt;&lt;div&gt;&lt;span&gt;			&lt;/span&gt;amdgpu_device_ip_block_add(adev, &amp;amp;dce_virtual_ip_block);&lt;/div&gt;&lt;div&gt;#if defined(CONFIG_DRM_AMD_DC)&lt;/div&gt;&lt;div&gt;&lt;span&gt;		&lt;/span&gt;else if (amdgpu_device_has_dc_support(adev))&lt;/div&gt;&lt;div&gt;&lt;span&gt;			&lt;/span&gt;amdgpu_device_ip_block_add(adev, &amp;amp;&lt;font color=&quot;#ff0000&quot;&gt;dm_ip_block&lt;/font&gt;);&lt;/div&gt;&lt;div&gt;#endif&lt;/div&gt;&lt;div&gt;&lt;span&gt;		&lt;/span&gt;else&lt;/div&gt;&lt;div&gt;&lt;span&gt;			&lt;/span&gt;amdgpu_device_ip_block_add(adev, &amp;amp;dce_v11_2_ip_block);&lt;/div&gt;&lt;div&gt;&lt;span&gt;		&lt;/span&gt;amdgpu_device_ip_block_add(adev, &amp;amp;uvd_v6_3_ip_block);&lt;/div&gt;&lt;div&gt;&lt;span&gt;		&lt;/span&gt;amdgpu_device_ip_block_add(adev, &amp;amp;vce_v3_4_ip_block);&lt;/div&gt;" style="text;html=1;align=left;verticalAlign=middle;resizable=0;points=[];autosize=1;strokeColor=none;fillColor=none;" vertex="1" parent="1">
          <mxGeometry x="400" y="345" width="340" height="240" as="geometry" />
        </mxCell>
        <mxCell id="GLmPlQLurBmdkAW1gnxs-9" value="&lt;div&gt;&lt;div&gt;const struct amdgpu_ip_block_version &lt;font color=&quot;#ff3333&quot;&gt;dm_ip_block&lt;/font&gt; =&lt;/div&gt;&lt;div&gt;{&lt;/div&gt;&lt;div&gt;&lt;span&gt;	&lt;/span&gt;.type = AMD_IP_BLOCK_TYPE_DCE,&lt;/div&gt;&lt;div&gt;&lt;span&gt;	&lt;/span&gt;.major = 1,&lt;/div&gt;&lt;div&gt;&lt;span&gt;	&lt;/span&gt;.minor = 0,&lt;/div&gt;&lt;div&gt;&lt;span&gt;	&lt;/span&gt;.rev = 0,&lt;/div&gt;&lt;div&gt;&lt;span&gt;	&lt;/span&gt;.funcs = &amp;amp;amdgpu_dm_funcs,&lt;/div&gt;&lt;div&gt;};&lt;/div&gt;&lt;/div&gt;&lt;div&gt;&lt;br&gt;&lt;/div&gt;&lt;div&gt;static const struct amd_ip_funcs amdgpu_dm_funcs = {&lt;/div&gt;&lt;div&gt;&lt;span&gt;	&lt;/span&gt;.name = &quot;dm&quot;,&lt;/div&gt;&lt;div&gt;&lt;span&gt;	&lt;/span&gt;.early_init = dm_early_init,&lt;/div&gt;&lt;div&gt;&lt;span&gt;	&lt;/span&gt;.late_init = dm_late_init,&lt;/div&gt;&lt;div&gt;&lt;span&gt;	&lt;/span&gt;.sw_init = dm_sw_init,&lt;/div&gt;&lt;div&gt;&lt;span&gt;	&lt;/span&gt;.sw_fini = dm_sw_fini,&lt;/div&gt;&lt;div&gt;&lt;span&gt;	&lt;/span&gt;.hw_init = dm_hw_init,&lt;/div&gt;&lt;div&gt;&lt;span&gt;	&lt;/span&gt;.hw_fini = dm_hw_fini,&lt;/div&gt;&lt;div&gt;&lt;span&gt;	&lt;/span&gt;.suspend = dm_suspend,&lt;/div&gt;&lt;div&gt;&lt;span&gt;	&lt;/span&gt;.resume = dm_resume,&lt;/div&gt;&lt;div&gt;&lt;span&gt;	&lt;/span&gt;.is_idle = dm_is_idle,&lt;/div&gt;&lt;div&gt;&lt;span&gt;	&lt;/span&gt;.wait_for_idle = dm_wait_for_idle,&lt;/div&gt;&lt;div&gt;&lt;span&gt;	&lt;/span&gt;.check_soft_reset = dm_check_soft_reset,&lt;/div&gt;&lt;div&gt;&lt;span&gt;	&lt;/span&gt;.soft_reset = dm_soft_reset,&lt;/div&gt;&lt;div&gt;&lt;span&gt;	&lt;/span&gt;.set_clockgating_state = dm_set_clockgating_state,&lt;/div&gt;&lt;div&gt;&lt;span&gt;	&lt;/span&gt;.set_powergating_state = dm_set_powergating_state,&lt;/div&gt;&lt;div&gt;};&lt;/div&gt;" style="text;html=1;align=left;verticalAlign=middle;resizable=0;points=[];autosize=1;strokeColor=none;fillColor=none;" vertex="1" parent="1">
          <mxGeometry x="1020" y="280" width="310" height="370" as="geometry" />
        </mxCell>
        <mxCell id="GLmPlQLurBmdkAW1gnxs-11" value="" style="endArrow=none;dashed=1;html=1;dashPattern=1 3;strokeWidth=2;rounded=0;fontColor=#FF3333;" edge="1" parent="1">
          <mxGeometry width="50" height="50" relative="1" as="geometry">
            <mxPoint x="-320" y="860" as="sourcePoint" />
            <mxPoint x="-320" y="200" as="targetPoint" />
          </mxGeometry>
        </mxCell>
        <mxCell id="GLmPlQLurBmdkAW1gnxs-12" value="" style="endArrow=none;dashed=1;html=1;dashPattern=1 3;strokeWidth=2;rounded=0;fontColor=#FF3333;" edge="1" parent="1">
          <mxGeometry width="50" height="50" relative="1" as="geometry">
            <mxPoint x="70" y="860" as="sourcePoint" />
            <mxPoint x="70" y="200" as="targetPoint" />
          </mxGeometry>
        </mxCell>
        <mxCell id="GLmPlQLurBmdkAW1gnxs-13" value="" style="shape=flexArrow;endArrow=classic;startArrow=classic;html=1;rounded=0;fontColor=#FF3333;" edge="1" parent="1">
          <mxGeometry width="100" height="100" relative="1" as="geometry">
            <mxPoint x="690" y="515" as="sourcePoint" />
            <mxPoint x="1010" y="290" as="targetPoint" />
          </mxGeometry>
        </mxCell>
        <mxCell id="GLmPlQLurBmdkAW1gnxs-14" value="" style="endArrow=classic;html=1;rounded=0;fontColor=#FF3333;" edge="1" parent="1">
          <mxGeometry width="50" height="50" relative="1" as="geometry">
            <mxPoint x="-30" y="510" as="sourcePoint" />
            <mxPoint x="100" y="450" as="targetPoint" />
          </mxGeometry>
        </mxCell>
        <mxCell id="GLmPlQLurBmdkAW1gnxs-15" value="" style="endArrow=classic;html=1;rounded=0;fontColor=#FF3333;" edge="1" parent="1">
          <mxGeometry width="50" height="50" relative="1" as="geometry">
            <mxPoint x="90" y="570" as="sourcePoint" />
            <mxPoint x="-30" y="530" as="targetPoint" />
          </mxGeometry>
        </mxCell>
        <mxCell id="GLmPlQLurBmdkAW1gnxs-16" value="amdgpu_amdkfd_device_probe" style="text;html=1;align=center;verticalAlign=middle;resizable=0;points=[];autosize=1;strokeColor=none;fillColor=none;fontColor=#000000;" vertex="1" parent="1">
          <mxGeometry x="90" y="500" width="180" height="20" as="geometry" />
        </mxCell>
      </root>
    </mxGraphModel>
  </diagram>
</mxfile>
